<?xml version="1.0" encoding="utf-8"?>
<!-- Generator: Adobe Illustrator 26.3.1, SVG Export Plug-In . SVG Version: 6.00 Build 0)  -->
<svg version="1.1" id="Layer_1" xmlns="http://www.w3.org/2000/svg" xmlns:xlink="http://www.w3.org/1999/xlink" x="0px" y="0px"
	 viewBox="0 0 505 363" style="enable-background:new 0 0 505 363;" xml:space="preserve">
<style type="text/css">
	.st0{clip-path:url(#SVGID_00000055690242962198797180000000225686087397190277_);}
	.st1{fill:#A1A5D3;}
	.st2{fill:#F2F2F2;}
	.st3{fill:#EC6467;}
</style>
<g>
	<defs>
		<path id="SVGID_1_" d="M392.64,355.03c2.62-11.75,4.01-23.96,4.01-36.49c0-92.23-74.76-166.99-166.99-166.99
			c-56.38,0-106.23,27.94-136.47,70.73l-0.01,0L93,222.55c-3.1,4.41-5.99,8.97-8.66,13.68L9.07,355.03H392.64z"/>
	</defs>
	<clipPath id="SVGID_00000058566737437864905190000012222834356492047528_">
		<use xlink:href="#SVGID_1_"  style="overflow:visible;"/>
	</clipPath>
	<g style="clip-path:url(#SVGID_00000058566737437864905190000012222834356492047528_);">
		
			<rect x="319.89" y="205.37" transform="matrix(0.8486 0.529 -0.529 0.8486 299.4239 -98.473)" class="st1" width="3.78" height="537.17"/>
		
			<rect x="306.75" y="197.18" transform="matrix(0.8486 0.529 -0.529 0.8486 293.1042 -92.7639)" class="st1" width="3.78" height="537.17"/>
		
			<rect x="293.62" y="188.99" transform="matrix(0.8486 0.529 -0.529 0.8486 286.7845 -87.0548)" class="st1" width="3.78" height="537.17"/>
		
			<rect x="280.48" y="180.8" transform="matrix(0.8486 0.529 -0.529 0.8486 280.4648 -81.3457)" class="st1" width="3.78" height="537.17"/>
		
			<rect x="267.35" y="172.62" transform="matrix(0.8486 0.529 -0.529 0.8486 274.1451 -75.6366)" class="st1" width="3.78" height="537.17"/>
		
			<rect x="254.21" y="164.43" transform="matrix(0.8486 0.529 -0.529 0.8486 267.8254 -69.9275)" class="st1" width="3.78" height="537.17"/>
		
			<rect x="241.07" y="156.24" transform="matrix(0.8486 0.529 -0.529 0.8486 261.5056 -64.2184)" class="st1" width="3.78" height="537.17"/>
		
			<rect x="227.94" y="148.05" transform="matrix(0.8486 0.529 -0.529 0.8486 255.1859 -58.5093)" class="st1" width="3.78" height="537.17"/>
		
			<rect x="214.8" y="139.86" transform="matrix(0.8486 0.529 -0.529 0.8486 248.8662 -52.8001)" class="st1" width="3.78" height="537.17"/>
		
			<rect x="201.67" y="131.68" transform="matrix(0.8486 0.529 -0.529 0.8486 242.5465 -47.091)" class="st1" width="3.78" height="537.17"/>
		
			<rect x="188.53" y="123.49" transform="matrix(0.8486 0.529 -0.529 0.8486 236.2268 -41.3819)" class="st1" width="3.78" height="537.17"/>
		
			<rect x="175.4" y="115.3" transform="matrix(0.8486 0.529 -0.529 0.8486 229.9071 -35.6728)" class="st1" width="3.78" height="537.17"/>
		
			<rect x="162.26" y="107.11" transform="matrix(0.8486 0.529 -0.529 0.8486 223.5874 -29.9637)" class="st1" width="3.78" height="537.17"/>
		
			<rect x="149.13" y="98.92" transform="matrix(0.8486 0.529 -0.529 0.8486 217.2677 -24.2546)" class="st1" width="3.78" height="537.17"/>
		
			<rect x="135.99" y="90.74" transform="matrix(0.8486 0.529 -0.529 0.8486 210.948 -18.5455)" class="st1" width="3.78" height="537.17"/>
		
			<rect x="122.86" y="82.55" transform="matrix(0.8486 0.529 -0.529 0.8486 204.6283 -12.8364)" class="st1" width="3.78" height="537.17"/>
		
			<rect x="109.72" y="74.36" transform="matrix(0.8486 0.529 -0.529 0.8486 198.3085 -7.1273)" class="st1" width="3.78" height="537.17"/>
		
			<rect x="96.58" y="66.17" transform="matrix(0.8486 0.529 -0.529 0.8486 191.9888 -1.4182)" class="st1" width="3.78" height="537.17"/>
		
			<rect x="83.45" y="57.98" transform="matrix(0.8486 0.529 -0.529 0.8486 185.6691 4.2909)" class="st1" width="3.78" height="537.17"/>
		<rect x="70.31" y="49.8" transform="matrix(0.8486 0.529 -0.529 0.8486 179.3494 10)" class="st1" width="3.78" height="537.17"/>
		
			<rect x="57.18" y="41.61" transform="matrix(0.8486 0.529 -0.529 0.8486 173.0297 15.7091)" class="st1" width="3.78" height="537.17"/>
		
			<rect x="44.04" y="33.42" transform="matrix(0.8486 0.529 -0.529 0.8486 166.71 21.4183)" class="st1" width="3.78" height="537.17"/>
		
			<rect x="30.91" y="25.23" transform="matrix(0.8486 0.529 -0.529 0.8486 160.3903 27.1274)" class="st1" width="3.78" height="537.17"/>
		
			<rect x="17.77" y="17.04" transform="matrix(0.8486 0.529 -0.529 0.8486 154.0706 32.8365)" class="st1" width="3.78" height="537.17"/>
	</g>
</g>
<polygon class="st2" points="492.94,14.79 426.47,137.69 428.22,138.64 428.23,138.65 428.23,138.64 429.99,139.59 496.02,16.53 "/>
<g>
	<g>
		<path class="st3" d="M62.65,12.12"/>
		<path class="st3" d="M87.04,12.12"/>
		<path class="st3" d="M111.43,12.12"/>
		<path class="st3" d="M135.83,12.12"/>
		<path class="st3" d="M160.22,12.12"/>
		<path class="st3" d="M184.61,12.12"/>
		<path class="st3" d="M209,12.12"/>
		<path class="st3" d="M233.39,12.12"/>
		<path class="st3" d="M257.78,12.12"/>
		<path class="st3" d="M282.18,12.12"/>
		<path class="st3" d="M306.57,12.12"/>
		<path class="st2" d="M330.96,12.12"/>
		<path class="st2" d="M355.35,12.12"/>
		<path class="st2" d="M379.74,12.12"/>
		<path class="st2" d="M404.13,12.12"/>
		<path class="st2" d="M428.53,12.12"/>
	</g>
	<g>
		<circle class="st3" cx="62.65" cy="31.35" r="2.33"/>
		<circle class="st3" cx="87.04" cy="31.35" r="2.33"/>
		<circle class="st3" cx="111.43" cy="31.35" r="2.33"/>
		<circle class="st3" cx="135.83" cy="31.35" r="2.33"/>
		<circle class="st3" cx="160.22" cy="31.35" r="2.33"/>
		<circle class="st3" cx="184.61" cy="31.35" r="2.33"/>
		<circle class="st3" cx="209" cy="31.35" r="2.33"/>
		<circle class="st3" cx="233.39" cy="31.35" r="2.33"/>
		<circle class="st3" cx="257.78" cy="31.35" r="2.33"/>
		<circle class="st3" cx="282.18" cy="31.35" r="2.33"/>
		<circle class="st3" cx="306.57" cy="31.35" r="2.33"/>
		<circle class="st2" cx="330.96" cy="31.35" r="2.33"/>
		<circle class="st2" cx="355.35" cy="31.35" r="2.33"/>
		<circle class="st2" cx="379.74" cy="31.35" r="2.33"/>
		<circle class="st2" cx="404.13" cy="31.35" r="2.33"/>
		<circle class="st2" cx="428.53" cy="31.35" r="2.33"/>
	</g>
	<g>
		<circle class="st3" cx="62.65" cy="52.91" r="2.33"/>
		<circle class="st3" cx="87.04" cy="52.91" r="2.33"/>
		<circle class="st3" cx="111.43" cy="52.91" r="2.33"/>
		<circle class="st3" cx="135.83" cy="52.91" r="2.33"/>
		<circle class="st3" cx="160.22" cy="52.91" r="2.33"/>
		<circle class="st3" cx="184.61" cy="52.91" r="2.33"/>
		<circle class="st3" cx="209" cy="52.91" r="2.33"/>
		<circle class="st3" cx="233.39" cy="52.91" r="2.33"/>
		<circle class="st3" cx="257.78" cy="52.91" r="2.33"/>
		<circle class="st3" cx="282.18" cy="52.91" r="2.33"/>
		<circle class="st3" cx="306.57" cy="52.91" r="2.33"/>
		<circle class="st2" cx="330.96" cy="52.91" r="2.33"/>
		<circle class="st2" cx="355.35" cy="52.91" r="2.33"/>
		<circle class="st2" cx="379.74" cy="52.91" r="2.33"/>
		<circle class="st2" cx="404.13" cy="52.91" r="2.33"/>
		<circle class="st2" cx="428.53" cy="52.91" r="2.33"/>
	</g>
	<g>
		<circle class="st3" cx="62.65" cy="74.46" r="2.33"/>
		<circle class="st3" cx="87.04" cy="74.46" r="2.33"/>
		<circle class="st3" cx="111.43" cy="74.46" r="2.33"/>
		<circle class="st3" cx="135.83" cy="74.46" r="2.33"/>
		<circle class="st3" cx="160.22" cy="74.46" r="2.33"/>
		<circle class="st3" cx="184.61" cy="74.46" r="2.33"/>
		<circle class="st3" cx="209" cy="74.46" r="2.33"/>
		<circle class="st3" cx="233.39" cy="74.46" r="2.33"/>
		<circle class="st3" cx="257.78" cy="74.46" r="2.33"/>
		<circle class="st3" cx="282.18" cy="74.46" r="2.33"/>
		<circle class="st3" cx="306.57" cy="74.46" r="2.33"/>
		<circle class="st2" cx="330.96" cy="74.46" r="2.33"/>
		<circle class="st2" cx="355.35" cy="74.46" r="2.33"/>
		<circle class="st2" cx="379.74" cy="74.46" r="2.33"/>
		<circle class="st2" cx="404.13" cy="74.46" r="2.33"/>
		<circle class="st2" cx="428.53" cy="74.46" r="2.33"/>
	</g>
</g>
</svg>
