<?xml version="1.0" encoding="utf-8"?>
<!-- Generator: Adobe Illustrator 26.3.1, SVG Export Plug-In . SVG Version: 6.00 Build 0)  -->
<svg version="1.1" id="Layer_1" xmlns="http://www.w3.org/2000/svg" xmlns:xlink="http://www.w3.org/1999/xlink" x="0px" y="0px"
	 viewBox="0 0 333 268.12" style="enable-background:new 0 0 333 268.12;" xml:space="preserve">
<style type="text/css">
	.st0{clip-path:url(#SVGID_00000088844286196289347160000017660933792153670576_);}
	.st1{fill:#A1A5D3;}
	.st2{fill:#F2F2F2;}
	.st3{fill:#CDCCCC;stroke:#CDCCCC;stroke-miterlimit:10;}
	.st4{fill:#FFFFFF;}
</style>
<g>
	<defs>
		<path id="SVGID_1_" d="M9.21,3.75c-4.45,18.21-2.68,25.66-2.68,33.3c0,56.21,45.57,101.78,101.78,101.78
			c34.36,0,64.75-17.03,83.18-43.11l0.01,0l0.1-0.17c1.89-2.69,3.65-5.47,5.28-8.34l52.6-83.47H9.21z"/>
	</defs>
	<clipPath id="SVGID_00000041287183736401998110000005674658013144830125_">
		<use xlink:href="#SVGID_1_"  style="overflow:visible;"/>
	</clipPath>
	<g style="clip-path:url(#SVGID_00000041287183736401998110000005674658013144830125_);">
		
			<rect x="51.01" y="-221.37" transform="matrix(-0.8486 -0.529 0.529 -0.8486 126.932 -79.0222)" class="st1" width="2.3" height="327.4"/>
		
			<rect x="59.02" y="-216.38" transform="matrix(-0.8486 -0.529 0.529 -0.8486 139.0921 -65.5616)" class="st1" width="2.3" height="327.4"/>
		
			<rect x="67.02" y="-211.39" transform="matrix(-0.8486 -0.529 0.529 -0.8486 151.2522 -52.1009)" class="st1" width="2.3" height="327.4"/>
		
			<rect x="75.03" y="-206.4" transform="matrix(-0.8486 -0.529 0.529 -0.8486 163.4123 -38.6403)" class="st1" width="2.3" height="327.4"/>
		
			<rect x="83.03" y="-201.41" transform="matrix(-0.8486 -0.529 0.529 -0.8486 175.5724 -25.1796)" class="st1" width="2.3" height="327.4"/>
		
			<rect x="91.04" y="-196.42" transform="matrix(-0.8486 -0.529 0.529 -0.8486 187.7325 -11.719)" class="st1" width="2.3" height="327.4"/>
		
			<rect x="99.04" y="-191.43" transform="matrix(-0.8486 -0.529 0.529 -0.8486 199.8926 1.7417)" class="st1" width="2.3" height="327.4"/>
		
			<rect x="107.05" y="-186.44" transform="matrix(-0.8486 -0.529 0.529 -0.8486 212.0527 15.2023)" class="st1" width="2.3" height="327.4"/>
		
			<rect x="115.06" y="-181.45" transform="matrix(-0.8486 -0.529 0.529 -0.8486 224.2128 28.663)" class="st1" width="2.3" height="327.4"/>
		
			<rect x="123.06" y="-176.46" transform="matrix(-0.8486 -0.529 0.529 -0.8486 236.3729 42.1236)" class="st1" width="2.3" height="327.4"/>
		
			<rect x="131.07" y="-171.47" transform="matrix(-0.8486 -0.529 0.529 -0.8486 248.533 55.5843)" class="st1" width="2.3" height="327.4"/>
		
			<rect x="139.07" y="-166.48" transform="matrix(-0.8486 -0.529 0.529 -0.8486 260.6931 69.0449)" class="st1" width="2.3" height="327.4"/>
		
			<rect x="147.08" y="-161.49" transform="matrix(-0.8486 -0.529 0.529 -0.8486 272.8532 82.5056)" class="st1" width="2.3" height="327.4"/>
		
			<rect x="155.09" y="-156.5" transform="matrix(-0.8486 -0.529 0.529 -0.8486 285.0133 95.9662)" class="st1" width="2.3" height="327.4"/>
		
			<rect x="163.09" y="-151.5" transform="matrix(-0.8486 -0.529 0.529 -0.8486 297.1734 109.4269)" class="st1" width="2.3" height="327.4"/>
		
			<rect x="171.1" y="-146.51" transform="matrix(-0.8486 -0.529 0.529 -0.8486 309.3335 122.8875)" class="st1" width="2.3" height="327.4"/>
		
			<rect x="179.1" y="-141.52" transform="matrix(-0.8486 -0.529 0.529 -0.8486 321.4936 136.3482)" class="st1" width="2.3" height="327.4"/>
		
			<rect x="187.11" y="-136.53" transform="matrix(-0.8486 -0.529 0.529 -0.8486 333.6537 149.8088)" class="st1" width="2.3" height="327.4"/>
		
			<rect x="195.12" y="-131.54" transform="matrix(-0.8486 -0.529 0.529 -0.8486 345.8138 163.2695)" class="st1" width="2.3" height="327.4"/>
		
			<rect x="203.12" y="-126.55" transform="matrix(-0.8486 -0.529 0.529 -0.8486 357.9739 176.7301)" class="st1" width="2.3" height="327.4"/>
		
			<rect x="211.13" y="-121.56" transform="matrix(-0.8486 -0.529 0.529 -0.8486 370.134 190.1908)" class="st1" width="2.3" height="327.4"/>
		
			<rect x="219.13" y="-116.57" transform="matrix(-0.8486 -0.529 0.529 -0.8486 382.2941 203.6514)" class="st1" width="2.3" height="327.4"/>
		
			<rect x="227.14" y="-111.58" transform="matrix(-0.8486 -0.529 0.529 -0.8486 394.4542 217.1121)" class="st1" width="2.3" height="327.4"/>
		
			<rect x="235.15" y="-106.59" transform="matrix(-0.8486 -0.529 0.529 -0.8486 406.6143 230.5728)" class="st1" width="2.3" height="327.4"/>
	</g>
</g>
<polygon class="st2" points="320.42,3.75 186.42,213.32 188.79,213.32 191.17,213.32 325.17,3.75 "/>
<g>
	<circle class="st3" cx="87.78" cy="213.88" r="5.48"/>
	<circle class="st3" cx="87.78" cy="236.03" r="5.48"/>
	<circle class="st3" cx="87.78" cy="258.19" r="5.48"/>
</g>
<polygon class="st4" points="286.65,56.57 186.42,213.32 188.79,213.32 191.17,213.32 286.65,63.99 "/>
</svg>
