<?xml version="1.0" encoding="utf-8"?>
<!-- Generator: Adobe Illustrator 26.3.1, SVG Export Plug-In . SVG Version: 6.00 Build 0)  -->
<svg version="1.1" id="Layer_1" xmlns="http://www.w3.org/2000/svg" xmlns:xlink="http://www.w3.org/1999/xlink" x="0px" y="0px"
	 viewBox="0 0 1859.86 573.22" style="enable-background:new 0 0 1859.86 573.22;" xml:space="preserve">
<style type="text/css">
	.st0{fill:#D39CC6;}
	.st1{clip-path:url(#SVGID_00000040551705288813225480000014565247468928439460_);}
	.st2{fill:#FFFFFF;}
	.st3{clip-path:url(#SVGID_00000051374767709023919350000005630317689381715614_);}
	.st4{clip-path:url(#SVGID_00000063619664880653176210000003732983499437959812_);}
	.st5{fill:#FFFFFF;stroke:#F2F2F2;stroke-miterlimit:10;}
	.st6{fill:#F2F2F2;}
</style>
<g>
	<g>
		<path class="st0" d="M480.71,263.67c-41.71,0-75.65-33.94-75.65-75.65s33.94-75.65,75.65-75.65s75.65,33.94,75.65,75.65
			S522.42,263.67,480.71,263.67z M480.71,114.38c-40.61,0-73.65,33.04-73.65,73.65s33.04,73.65,73.65,73.65s73.65-33.04,73.65-73.65
			S521.32,114.38,480.71,114.38z"/>
	</g>
	<g>
		<g>
			<defs>
				<path id="SVGID_1_" d="M438.07,561.43c2.62-11.75,4.01-23.96,4.01-36.49c0-92.23-74.76-166.99-166.99-166.99
					c-56.38,0-106.23,27.94-136.47,70.73l-0.01,0l-0.17,0.27c-3.1,4.41-5.99,8.97-8.66,13.68L54.49,561.43H438.07z"/>
			</defs>
			<clipPath id="SVGID_00000085933367577524639960000007629511125868930689_">
				<use xlink:href="#SVGID_1_"  style="overflow:visible;"/>
			</clipPath>
			<g style="clip-path:url(#SVGID_00000085933367577524639960000007629511125868930689_);">
				
					<rect x="365.31" y="411.77" transform="matrix(0.8486 0.529 -0.529 0.8486 415.4833 -91.2605)" class="st2" width="3.78" height="537.17"/>
				
					<rect x="352.18" y="403.58" transform="matrix(0.8486 0.529 -0.529 0.8486 409.1636 -85.5514)" class="st2" width="3.78" height="537.17"/>
				
					<rect x="339.04" y="395.39" transform="matrix(0.8486 0.529 -0.529 0.8486 402.8439 -79.8423)" class="st2" width="3.78" height="537.17"/>
				
					<rect x="325.91" y="387.2" transform="matrix(0.8486 0.529 -0.529 0.8486 396.5241 -74.1332)" class="st2" width="3.78" height="537.17"/>
				
					<rect x="312.77" y="379.01" transform="matrix(0.8486 0.529 -0.529 0.8486 390.2044 -68.4241)" class="st2" width="3.78" height="537.17"/>
				
					<rect x="299.64" y="370.83" transform="matrix(0.8486 0.529 -0.529 0.8486 383.8847 -62.715)" class="st2" width="3.78" height="537.17"/>
				
					<rect x="286.5" y="362.64" transform="matrix(0.8486 0.529 -0.529 0.8486 377.565 -57.0059)" class="st2" width="3.78" height="537.17"/>
				
					<rect x="273.37" y="354.45" transform="matrix(0.8486 0.529 -0.529 0.8486 371.2453 -51.2967)" class="st2" width="3.78" height="537.17"/>
				
					<rect x="260.23" y="346.26" transform="matrix(0.8486 0.529 -0.529 0.8486 364.9256 -45.5876)" class="st2" width="3.78" height="537.17"/>
				
					<rect x="247.1" y="338.07" transform="matrix(0.8486 0.529 -0.529 0.8486 358.6059 -39.8785)" class="st2" width="3.78" height="537.17"/>
				
					<rect x="233.96" y="329.89" transform="matrix(0.8486 0.529 -0.529 0.8486 352.2862 -34.1694)" class="st2" width="3.78" height="537.17"/>
				
					<rect x="220.82" y="321.7" transform="matrix(0.8486 0.529 -0.529 0.8486 345.9665 -28.4603)" class="st2" width="3.78" height="537.17"/>
				
					<rect x="207.69" y="313.51" transform="matrix(0.8486 0.529 -0.529 0.8486 339.6468 -22.7512)" class="st2" width="3.78" height="537.17"/>
				
					<rect x="194.55" y="305.32" transform="matrix(0.8486 0.529 -0.529 0.8486 333.3271 -17.0421)" class="st2" width="3.78" height="537.17"/>
				
					<rect x="181.42" y="297.13" transform="matrix(0.8486 0.529 -0.529 0.8486 327.0073 -11.333)" class="st2" width="3.78" height="537.17"/>
				
					<rect x="168.28" y="288.95" transform="matrix(0.8486 0.529 -0.529 0.8486 320.6876 -5.6239)" class="st2" width="3.78" height="537.17"/>
				
					<rect x="155.15" y="280.76" transform="matrix(0.8486 0.529 -0.529 0.8486 314.3679 0.0852)" class="st2" width="3.78" height="537.17"/>
				
					<rect x="142.01" y="272.57" transform="matrix(0.8486 0.529 -0.529 0.8486 308.0482 5.7943)" class="st2" width="3.78" height="537.17"/>
				
					<rect x="128.88" y="264.38" transform="matrix(0.8486 0.529 -0.529 0.8486 301.7285 11.5034)" class="st2" width="3.78" height="537.17"/>
				
					<rect x="115.74" y="256.19" transform="matrix(0.8486 0.529 -0.529 0.8486 295.4088 17.2125)" class="st2" width="3.78" height="537.17"/>
				
					<rect x="102.61" y="248.01" transform="matrix(0.8486 0.529 -0.529 0.8486 289.0891 22.9217)" class="st2" width="3.78" height="537.17"/>
				
					<rect x="89.47" y="239.82" transform="matrix(0.8486 0.529 -0.529 0.8486 282.7693 28.6308)" class="st2" width="3.78" height="537.17"/>
				
					<rect x="76.33" y="231.63" transform="matrix(0.8486 0.529 -0.529 0.8486 276.4496 34.3399)" class="st2" width="3.78" height="537.17"/>
				
					<rect x="63.2" y="223.44" transform="matrix(0.8486 0.529 -0.529 0.8486 270.1299 40.049)" class="st2" width="3.78" height="537.17"/>
			</g>
		</g>
		<g>
			<defs>
				<path id="SVGID_00000123430478173361039880000011505509957259591053_" d="M16.54,11.25c-4.45,18.21-2.68,25.66-2.68,33.3
					c0,56.21,45.57,101.78,101.78,101.78c34.36,0,64.75-17.03,83.18-43.11l0.01,0l0.1-0.17c1.89-2.69,3.65-5.47,5.28-8.34
					l52.6-83.47H16.54z"/>
			</defs>
			<clipPath id="SVGID_00000129896603695282887630000002134059699126078083_">
				<use xlink:href="#SVGID_00000123430478173361039880000011505509957259591053_"  style="overflow:visible;"/>
			</clipPath>
			<g style="clip-path:url(#SVGID_00000129896603695282887630000002134059699126078083_);">
				
					<rect x="58.34" y="-213.87" transform="matrix(-0.8486 -0.529 0.529 -0.8486 136.5227 -61.2678)" class="st2" width="2.3" height="327.4"/>
				
					<rect x="66.35" y="-208.88" transform="matrix(-0.8486 -0.529 0.529 -0.8486 148.6828 -47.8072)" class="st2" width="2.3" height="327.4"/>
				
					<rect x="74.36" y="-203.89" transform="matrix(-0.8486 -0.529 0.529 -0.8486 160.8429 -34.3465)" class="st2" width="2.3" height="327.4"/>
				
					<rect x="82.36" y="-198.9" transform="matrix(-0.8486 -0.529 0.529 -0.8486 173.003 -20.8859)" class="st2" width="2.3" height="327.4"/>
				
					<rect x="90.37" y="-193.9" transform="matrix(-0.8486 -0.529 0.529 -0.8486 185.1631 -7.4252)" class="st2" width="2.3" height="327.4"/>
				
					<rect x="98.37" y="-188.91" transform="matrix(-0.8486 -0.529 0.529 -0.8486 197.3232 6.0354)" class="st2" width="2.3" height="327.4"/>
				
					<rect x="106.38" y="-183.92" transform="matrix(-0.8486 -0.529 0.529 -0.8486 209.4833 19.4961)" class="st2" width="2.3" height="327.4"/>
				
					<rect x="114.39" y="-178.93" transform="matrix(-0.8486 -0.529 0.529 -0.8486 221.6434 32.9568)" class="st2" width="2.3" height="327.4"/>
				
					<rect x="122.39" y="-173.94" transform="matrix(-0.8486 -0.529 0.529 -0.8486 233.8035 46.4174)" class="st2" width="2.3" height="327.4"/>
				
					<rect x="130.4" y="-168.95" transform="matrix(-0.8486 -0.529 0.529 -0.8486 245.9636 59.8781)" class="st2" width="2.3" height="327.4"/>
				
					<rect x="138.4" y="-163.96" transform="matrix(-0.8486 -0.529 0.529 -0.8486 258.1237 73.3387)" class="st2" width="2.3" height="327.4"/>
				
					<rect x="146.41" y="-158.97" transform="matrix(-0.8486 -0.529 0.529 -0.8486 270.2838 86.7994)" class="st2" width="2.3" height="327.4"/>
				
					<rect x="154.42" y="-153.98" transform="matrix(-0.8486 -0.529 0.529 -0.8486 282.4439 100.26)" class="st2" width="2.3" height="327.4"/>
				
					<rect x="162.42" y="-148.99" transform="matrix(-0.8486 -0.529 0.529 -0.8486 294.604 113.7207)" class="st2" width="2.3" height="327.4"/>
				
					<rect x="170.43" y="-144" transform="matrix(-0.8486 -0.529 0.529 -0.8486 306.7641 127.1813)" class="st2" width="2.3" height="327.4"/>
				
					<rect x="178.43" y="-139.01" transform="matrix(-0.8486 -0.529 0.529 -0.8486 318.9242 140.642)" class="st2" width="2.3" height="327.4"/>
				
					<rect x="186.44" y="-134.02" transform="matrix(-0.8486 -0.529 0.529 -0.8486 331.0843 154.1026)" class="st2" width="2.3" height="327.4"/>
				
					<rect x="194.45" y="-129.03" transform="matrix(-0.8486 -0.529 0.529 -0.8486 343.2444 167.5633)" class="st2" width="2.3" height="327.4"/>
				
					<rect x="202.45" y="-124.04" transform="matrix(-0.8486 -0.529 0.529 -0.8486 355.4045 181.0239)" class="st2" width="2.3" height="327.4"/>
				
					<rect x="210.46" y="-119.05" transform="matrix(-0.8486 -0.529 0.529 -0.8486 367.5646 194.4846)" class="st2" width="2.3" height="327.4"/>
				
					<rect x="218.46" y="-114.06" transform="matrix(-0.8486 -0.529 0.529 -0.8486 379.7247 207.9452)" class="st2" width="2.3" height="327.4"/>
				
					<rect x="226.47" y="-109.07" transform="matrix(-0.8486 -0.529 0.529 -0.8486 391.8848 221.4059)" class="st2" width="2.3" height="327.4"/>
				
					<rect x="234.48" y="-104.08" transform="matrix(-0.8486 -0.529 0.529 -0.8486 404.0449 234.8665)" class="st2" width="2.3" height="327.4"/>
				
					<rect x="242.48" y="-99.09" transform="matrix(-0.8486 -0.529 0.529 -0.8486 416.205 248.3272)" class="st2" width="2.3" height="327.4"/>
			</g>
		</g>
		<g>
			<defs>
				<path id="SVGID_00000045577565485438160860000004987124637952948098_" d="M1807.19,561.43
					c-32.69-64.08-99.31-107.96-176.18-107.96c-66.74,0-125.74,33.08-161.53,83.73l-0.02,0l-0.2,0.32
					c-3.67,5.22-7.09,10.62-10.26,16.19l-4.9,7.73H1807.19z"/>
			</defs>
			<clipPath id="SVGID_00000127728068543548773640000008579963187278994078_">
				<use xlink:href="#SVGID_00000045577565485438160860000004987124637952948098_"  style="overflow:visible;"/>
			</clipPath>
			<g style="clip-path:url(#SVGID_00000127728068543548773640000008579963187278994078_);">
				
					<rect x="1737.81" y="517.17" transform="matrix(0.8486 0.529 -0.529 0.8486 705.1501 -794.0572)" class="st0" width="4.47" height="635.84"/>
				
					<rect x="1722.26" y="507.48" transform="matrix(0.8486 0.529 -0.529 0.8486 697.6696 -787.2994)" class="st0" width="4.47" height="635.84"/>
				
					<rect x="1706.71" y="497.79" transform="matrix(0.8486 0.529 -0.529 0.8486 690.1891 -780.5417)" class="st0" width="4.47" height="635.84"/>
				
					<rect x="1691.16" y="488.1" transform="matrix(0.8486 0.529 -0.529 0.8486 682.7086 -773.7839)" class="st0" width="4.47" height="635.84"/>
				
					<rect x="1675.62" y="478.41" transform="matrix(0.8486 0.529 -0.529 0.8486 675.2281 -767.0262)" class="st0" width="4.47" height="635.84"/>
				
					<rect x="1660.07" y="468.71" transform="matrix(0.8486 0.529 -0.529 0.8486 667.7476 -760.2684)" class="st0" width="4.47" height="635.84"/>
				
					<rect x="1644.52" y="459.02" transform="matrix(0.8486 0.529 -0.529 0.8486 660.267 -753.5107)" class="st0" width="4.47" height="635.84"/>
				
					<rect x="1628.97" y="449.33" transform="matrix(0.8486 0.529 -0.529 0.8486 652.7866 -746.7529)" class="st0" width="4.47" height="635.84"/>
				
					<rect x="1613.42" y="439.64" transform="matrix(0.8486 0.529 -0.529 0.8486 645.306 -739.9952)" class="st0" width="4.47" height="635.84"/>
				
					<rect x="1597.88" y="429.95" transform="matrix(0.8486 0.529 -0.529 0.8486 637.8255 -733.2374)" class="st0" width="4.47" height="635.84"/>
				
					<rect x="1582.33" y="420.25" transform="matrix(0.8486 0.529 -0.529 0.8486 630.345 -726.4797)" class="st0" width="4.47" height="635.84"/>
				
					<rect x="1566.78" y="410.56" transform="matrix(0.8486 0.529 -0.529 0.8486 622.8645 -719.7219)" class="st0" width="4.47" height="635.84"/>
				
					<rect x="1551.23" y="400.87" transform="matrix(0.8486 0.529 -0.529 0.8486 615.384 -712.9642)" class="st0" width="4.47" height="635.84"/>
				
					<rect x="1535.68" y="391.18" transform="matrix(0.8486 0.529 -0.529 0.8486 607.9035 -706.2064)" class="st0" width="4.47" height="635.84"/>
				
					<rect x="1520.13" y="381.49" transform="matrix(0.8486 0.529 -0.529 0.8486 600.423 -699.4487)" class="st0" width="4.47" height="635.84"/>
				
					<rect x="1504.59" y="371.79" transform="matrix(0.8486 0.529 -0.529 0.8486 592.9425 -692.6909)" class="st0" width="4.47" height="635.84"/>
				
					<rect x="1489.04" y="362.1" transform="matrix(0.8486 0.529 -0.529 0.8486 585.462 -685.9332)" class="st0" width="4.47" height="635.84"/>
				
					<rect x="1473.49" y="352.41" transform="matrix(0.8486 0.529 -0.529 0.8486 577.9814 -679.1754)" class="st0" width="4.47" height="635.84"/>
				
					<rect x="1457.94" y="342.72" transform="matrix(0.8486 0.529 -0.529 0.8486 570.501 -672.4177)" class="st0" width="4.47" height="635.84"/>
				
					<rect x="1442.39" y="333.03" transform="matrix(0.8486 0.529 -0.529 0.8486 563.0204 -665.6599)" class="st0" width="4.47" height="635.84"/>
				
					<rect x="1426.85" y="323.33" transform="matrix(0.8486 0.529 -0.529 0.8486 555.5399 -658.9022)" class="st0" width="4.47" height="635.84"/>
				
					<rect x="1411.3" y="313.64" transform="matrix(0.8486 0.529 -0.529 0.8486 548.0594 -652.1444)" class="st0" width="4.47" height="635.84"/>
				
					<rect x="1395.75" y="303.95" transform="matrix(0.8486 0.529 -0.529 0.8486 540.5789 -645.3867)" class="st0" width="4.47" height="635.84"/>
				
					<rect x="1380.2" y="294.26" transform="matrix(0.8486 0.529 -0.529 0.8486 533.0984 -638.6289)" class="st0" width="4.47" height="635.84"/>
			</g>
		</g>
		<polygon class="st2" points="1568.97,29.48 1568.97,29.47 1568.97,29.48 1567.28,28.4 1227.64,559.57 1230.01,559.57 
			1232.39,559.57 1570.65,30.55 		"/>
		<polygon class="st2" points="1080.5,11.25 1014.03,134.16 1015.79,135.1 1015.79,135.11 1015.79,135.1 1017.55,136.06 
			1085.05,11.25 		"/>
		<polygon class="st2" points="754.06,255.08 752.38,254.01 752.38,254 752.38,254 750.69,252.93 637.25,430.34 642,430.34 		"/>
		<polygon class="st2" points="327.76,11.25 193.75,220.82 196.12,220.82 198.5,220.82 332.5,11.25 		"/>
		<g>
			<circle class="st5" cx="57.95" cy="220.82" r="5.48"/>
			<circle class="st5" cx="57.95" cy="242.98" r="5.48"/>
			<circle class="st5" cx="57.95" cy="265.13" r="5.48"/>
		</g>
		<polygon class="st2" points="1850.49,154.96 1191.5,154.96 1268.18,11.25 1265.91,11.25 1188.17,156.96 1850.49,156.96 		"/>
		<g>
			<circle class="st6" cx="1456.86" cy="73.65" r="5.48"/>
			<circle class="st6" cx="1434.7" cy="73.65" r="5.48"/>
			<circle class="st6" cx="1412.54" cy="73.65" r="5.48"/>
		</g>
		<g>
			<path class="st6" d="M1589.5,432.11c-12.82,0-23.25-10.43-23.25-23.25s10.43-23.25,23.25-23.25s23.25,10.43,23.25,23.25
				S1602.32,432.11,1589.5,432.11z M1589.5,387.61c-11.72,0-21.25,9.53-21.25,21.25s9.53,21.25,21.25,21.25s21.25-9.53,21.25-21.25
				S1601.22,387.61,1589.5,387.61z"/>
		</g>
		<g>
			<g>
				<circle class="st6" cx="1047.69" cy="394.62" r="2.33"/>
				<circle class="st6" cx="1072.08" cy="394.62" r="2.33"/>
				<circle class="st6" cx="1096.47" cy="394.62" r="2.33"/>
				<circle class="st6" cx="1120.86" cy="394.62" r="2.33"/>
				<circle class="st6" cx="1145.26" cy="394.62" r="2.33"/>
				<circle class="st6" cx="1169.65" cy="394.62" r="2.33"/>
				<circle class="st6" cx="1194.04" cy="394.62" r="2.33"/>
				<circle class="st6" cx="1218.43" cy="394.62" r="2.33"/>
				<circle class="st6" cx="1242.82" cy="394.62" r="2.33"/>
				<circle class="st6" cx="1267.21" cy="394.62" r="2.33"/>
				<circle class="st6" cx="1291.61" cy="394.62" r="2.33"/>
				<circle class="st6" cx="1316" cy="394.62" r="2.33"/>
				<circle class="st6" cx="1340.39" cy="394.62" r="2.33"/>
				<circle class="st6" cx="1364.78" cy="394.62" r="2.33"/>
				<circle class="st6" cx="1389.17" cy="394.62" r="2.33"/>
				<circle class="st6" cx="1413.57" cy="394.62" r="2.33"/>
			</g>
			<g>
				<circle class="st6" cx="1047.69" cy="416.18" r="2.33"/>
				<circle class="st6" cx="1072.08" cy="416.18" r="2.33"/>
				<circle class="st6" cx="1096.47" cy="416.18" r="2.33"/>
				<circle class="st6" cx="1120.86" cy="416.18" r="2.33"/>
				<circle class="st6" cx="1145.26" cy="416.18" r="2.33"/>
				<circle class="st6" cx="1169.65" cy="416.18" r="2.33"/>
				<circle class="st6" cx="1194.04" cy="416.18" r="2.33"/>
				<circle class="st6" cx="1218.43" cy="416.18" r="2.33"/>
				<circle class="st6" cx="1242.82" cy="416.18" r="2.33"/>
				<circle class="st6" cx="1267.21" cy="416.18" r="2.33"/>
				<circle class="st6" cx="1291.61" cy="416.18" r="2.33"/>
				<circle class="st6" cx="1316" cy="416.18" r="2.33"/>
				<circle class="st6" cx="1340.39" cy="416.18" r="2.33"/>
				<circle class="st6" cx="1364.78" cy="416.18" r="2.33"/>
				<circle class="st6" cx="1389.17" cy="416.18" r="2.33"/>
				<circle class="st6" cx="1413.57" cy="416.18" r="2.33"/>
			</g>
			<g>
				<circle class="st6" cx="1047.69" cy="437.73" r="2.33"/>
				<circle class="st6" cx="1072.08" cy="437.73" r="2.33"/>
				<circle class="st6" cx="1096.47" cy="437.73" r="2.33"/>
				<circle class="st6" cx="1120.86" cy="437.73" r="2.33"/>
				<circle class="st6" cx="1145.26" cy="437.73" r="2.33"/>
				<circle class="st6" cx="1169.65" cy="437.73" r="2.33"/>
				<circle class="st6" cx="1194.04" cy="437.73" r="2.33"/>
				<circle class="st6" cx="1218.43" cy="437.73" r="2.33"/>
				<circle class="st6" cx="1242.82" cy="437.73" r="2.33"/>
				<circle class="st6" cx="1267.21" cy="437.73" r="2.33"/>
				<circle class="st6" cx="1291.61" cy="437.73" r="2.33"/>
				<circle class="st6" cx="1316" cy="437.73" r="2.33"/>
				<circle class="st6" cx="1340.39" cy="437.73" r="2.33"/>
				<circle class="st6" cx="1364.78" cy="437.73" r="2.33"/>
				<circle class="st6" cx="1389.17" cy="437.73" r="2.33"/>
				<circle class="st6" cx="1413.57" cy="437.73" r="2.33"/>
			</g>
			<g>
				<circle class="st6" cx="1047.69" cy="459.29" r="2.33"/>
				<circle class="st6" cx="1072.08" cy="459.29" r="2.33"/>
				<circle class="st6" cx="1096.47" cy="459.29" r="2.33"/>
				<circle class="st6" cx="1120.86" cy="459.29" r="2.33"/>
				<circle class="st6" cx="1145.26" cy="459.29" r="2.33"/>
				<circle class="st6" cx="1169.65" cy="459.29" r="2.33"/>
				<circle class="st6" cx="1194.04" cy="459.29" r="2.33"/>
				<circle class="st6" cx="1218.43" cy="459.29" r="2.33"/>
				<circle class="st6" cx="1242.82" cy="459.29" r="2.33"/>
				<circle class="st6" cx="1267.21" cy="459.29" r="2.33"/>
				<circle class="st6" cx="1291.61" cy="459.29" r="2.33"/>
				<circle class="st6" cx="1316" cy="459.29" r="2.33"/>
				<circle class="st6" cx="1340.39" cy="459.29" r="2.33"/>
				<circle class="st6" cx="1364.78" cy="459.29" r="2.33"/>
				<circle class="st6" cx="1389.17" cy="459.29" r="2.33"/>
				<circle class="st6" cx="1413.57" cy="459.29" r="2.33"/>
			</g>
		</g>
		<g>
			<g>
				<path class="st6" d="M650.21,8.59"/>
				<path class="st6" d="M674.6,8.59"/>
				<path class="st6" d="M698.99,8.59"/>
				<path class="st6" d="M723.39,8.59"/>
				<path class="st6" d="M747.78,8.59"/>
				<path class="st6" d="M772.17,8.59"/>
				<path class="st6" d="M796.56,8.59"/>
				<path class="st6" d="M820.95,8.59"/>
				<path class="st6" d="M845.35,8.59"/>
				<path class="st6" d="M869.74,8.59"/>
				<path class="st6" d="M894.13,8.59"/>
				<path class="st6" d="M918.52,8.59"/>
				<path class="st6" d="M942.91,8.59"/>
				<path class="st6" d="M967.3,8.59"/>
				<path class="st6" d="M991.7,8.59"/>
				<path class="st6" d="M1016.09,8.59"/>
			</g>
			<g>
				<circle class="st6" cx="650.21" cy="27.82" r="2.33"/>
				<circle class="st6" cx="674.6" cy="27.82" r="2.33"/>
				<circle class="st6" cx="698.99" cy="27.82" r="2.33"/>
				<circle class="st6" cx="723.39" cy="27.82" r="2.33"/>
				<circle class="st6" cx="747.78" cy="27.82" r="2.33"/>
				<circle class="st6" cx="772.17" cy="27.82" r="2.33"/>
				<circle class="st6" cx="796.56" cy="27.82" r="2.33"/>
				<circle class="st6" cx="820.95" cy="27.82" r="2.33"/>
				<circle class="st6" cx="845.35" cy="27.82" r="2.33"/>
				<circle class="st6" cx="869.74" cy="27.82" r="2.33"/>
				<circle class="st6" cx="894.13" cy="27.82" r="2.33"/>
				<circle class="st6" cx="918.52" cy="27.82" r="2.33"/>
				<circle class="st6" cx="942.91" cy="27.82" r="2.33"/>
				<circle class="st6" cx="967.3" cy="27.82" r="2.33"/>
				<circle class="st6" cx="991.7" cy="27.82" r="2.33"/>
				<circle class="st6" cx="1016.09" cy="27.82" r="2.33"/>
			</g>
			<g>
				<circle class="st6" cx="650.21" cy="49.37" r="2.33"/>
				<circle class="st6" cx="674.6" cy="49.37" r="2.33"/>
				<circle class="st6" cx="698.99" cy="49.37" r="2.33"/>
				<circle class="st6" cx="723.39" cy="49.37" r="2.33"/>
				<circle class="st6" cx="747.78" cy="49.37" r="2.33"/>
				<circle class="st6" cx="772.17" cy="49.37" r="2.33"/>
				<circle class="st6" cx="796.56" cy="49.37" r="2.33"/>
				<circle class="st6" cx="820.95" cy="49.37" r="2.33"/>
				<circle class="st6" cx="845.35" cy="49.37" r="2.33"/>
				<circle class="st6" cx="869.74" cy="49.37" r="2.33"/>
				<circle class="st6" cx="894.13" cy="49.37" r="2.33"/>
				<circle class="st6" cx="918.52" cy="49.37" r="2.33"/>
				<circle class="st6" cx="942.91" cy="49.37" r="2.33"/>
				<circle class="st6" cx="967.3" cy="49.37" r="2.33"/>
				<circle class="st6" cx="991.7" cy="49.37" r="2.33"/>
				<circle class="st6" cx="1016.09" cy="49.37" r="2.33"/>
			</g>
			<g>
				<circle class="st6" cx="650.21" cy="70.93" r="2.33"/>
				<circle class="st6" cx="674.6" cy="70.93" r="2.33"/>
				<circle class="st6" cx="698.99" cy="70.93" r="2.33"/>
				<circle class="st6" cx="723.39" cy="70.93" r="2.33"/>
				<circle class="st6" cx="747.78" cy="70.93" r="2.33"/>
				<circle class="st6" cx="772.17" cy="70.93" r="2.33"/>
				<circle class="st6" cx="796.56" cy="70.93" r="2.33"/>
				<circle class="st6" cx="820.95" cy="70.93" r="2.33"/>
				<circle class="st6" cx="845.35" cy="70.93" r="2.33"/>
				<circle class="st6" cx="869.74" cy="70.93" r="2.33"/>
				<circle class="st6" cx="894.13" cy="70.93" r="2.33"/>
				<circle class="st6" cx="918.52" cy="70.93" r="2.33"/>
				<circle class="st6" cx="942.91" cy="70.93" r="2.33"/>
				<circle class="st6" cx="967.3" cy="70.93" r="2.33"/>
				<circle class="st6" cx="991.7" cy="70.93" r="2.33"/>
				<circle class="st6" cx="1016.09" cy="70.93" r="2.33"/>
			</g>
		</g>
		<g>
			<g>
				<circle class="st6" cx="1739.24" cy="20.39" r="2.64"/>
				<circle class="st6" cx="1739.24" cy="48.04" r="2.64"/>
				<circle class="st6" cx="1739.24" cy="75.7" r="2.64"/>
				<circle class="st6" cx="1739.24" cy="103.36" r="2.64"/>
				<circle class="st6" cx="1739.24" cy="131.01" r="2.64"/>
				<circle class="st6" cx="1739.24" cy="158.67" r="2.64"/>
				<circle class="st6" cx="1739.24" cy="186.32" r="2.64"/>
				<circle class="st6" cx="1739.24" cy="213.98" r="2.64"/>
				<circle class="st6" cx="1739.24" cy="241.63" r="2.64"/>
				<circle class="st6" cx="1739.24" cy="269.29" r="2.64"/>
				<circle class="st6" cx="1739.24" cy="296.94" r="2.64"/>
				<circle class="st6" cx="1739.24" cy="324.6" r="2.64"/>
				<circle class="st6" cx="1739.24" cy="352.26" r="2.64"/>
				<circle class="st6" cx="1739.24" cy="379.91" r="2.64"/>
				<circle class="st6" cx="1739.24" cy="407.57" r="2.64"/>
			</g>
			<g>
				<circle class="st6" cx="1714.8" cy="20.39" r="2.64"/>
				<circle class="st6" cx="1714.8" cy="48.04" r="2.64"/>
				<circle class="st6" cx="1714.8" cy="75.7" r="2.64"/>
				<circle class="st6" cx="1714.8" cy="103.36" r="2.64"/>
				<circle class="st6" cx="1714.8" cy="131.01" r="2.64"/>
				<circle class="st6" cx="1714.8" cy="158.67" r="2.64"/>
				<circle class="st6" cx="1714.8" cy="186.32" r="2.64"/>
				<circle class="st6" cx="1714.8" cy="213.98" r="2.64"/>
				<circle class="st6" cx="1714.8" cy="241.63" r="2.64"/>
				<circle class="st6" cx="1714.8" cy="269.29" r="2.64"/>
				<circle class="st6" cx="1714.8" cy="296.94" r="2.64"/>
				<circle class="st6" cx="1714.8" cy="324.6" r="2.64"/>
				<circle class="st6" cx="1714.8" cy="352.26" r="2.64"/>
				<circle class="st6" cx="1714.8" cy="379.91" r="2.64"/>
				<circle class="st6" cx="1714.8" cy="407.57" r="2.64"/>
			</g>
			<g>
				<circle class="st6" cx="1690.36" cy="20.39" r="2.64"/>
				<circle class="st6" cx="1690.36" cy="48.04" r="2.64"/>
				<circle class="st6" cx="1690.36" cy="75.7" r="2.64"/>
				<circle class="st6" cx="1690.36" cy="103.36" r="2.64"/>
				<circle class="st6" cx="1690.36" cy="131.01" r="2.64"/>
				<circle class="st6" cx="1690.36" cy="158.67" r="2.64"/>
				<circle class="st6" cx="1690.36" cy="186.32" r="2.64"/>
				<circle class="st6" cx="1690.36" cy="213.98" r="2.64"/>
				<circle class="st6" cx="1690.36" cy="241.63" r="2.64"/>
				<circle class="st6" cx="1690.36" cy="269.29" r="2.64"/>
				<circle class="st6" cx="1690.36" cy="296.94" r="2.64"/>
				<circle class="st6" cx="1690.36" cy="324.6" r="2.64"/>
				<circle class="st6" cx="1690.36" cy="352.26" r="2.64"/>
				<circle class="st6" cx="1690.36" cy="379.91" r="2.64"/>
				<circle class="st6" cx="1690.36" cy="407.57" r="2.64"/>
			</g>
			<g>
				<circle class="st6" cx="1665.92" cy="20.39" r="2.64"/>
				<circle class="st6" cx="1665.92" cy="48.04" r="2.64"/>
				<circle class="st6" cx="1665.92" cy="75.7" r="2.64"/>
				<circle class="st6" cx="1665.92" cy="103.36" r="2.64"/>
				<circle class="st6" cx="1665.92" cy="131.01" r="2.64"/>
				<circle class="st6" cx="1665.92" cy="158.67" r="2.64"/>
				<circle class="st6" cx="1665.92" cy="186.32" r="2.64"/>
				<circle class="st6" cx="1665.92" cy="213.98" r="2.64"/>
				<circle class="st6" cx="1665.92" cy="241.63" r="2.64"/>
				<circle class="st6" cx="1665.92" cy="269.29" r="2.64"/>
				<circle class="st6" cx="1665.92" cy="296.94" r="2.64"/>
				<circle class="st6" cx="1665.92" cy="324.6" r="2.64"/>
				<circle class="st6" cx="1665.92" cy="352.26" r="2.64"/>
				<circle class="st6" cx="1665.92" cy="379.91" r="2.64"/>
				<circle class="st6" cx="1665.92" cy="407.57" r="2.64"/>
			</g>
		</g>
	</g>
</g>
</svg>
