<?xml version="1.0" encoding="utf-8"?>
<!-- Generator: Adobe Illustrator 26.3.1, SVG Export Plug-In . SVG Version: 6.00 Build 0)  -->
<svg version="1.1" id="Layer_1" xmlns="http://www.w3.org/2000/svg" xmlns:xlink="http://www.w3.org/1999/xlink" x="0px" y="0px"
	 viewBox="0 0 399 424" style="enable-background:new 0 0 399 424;" xml:space="preserve">
<style type="text/css">
	.st0{fill:#D39CC6;}
	.st1{fill:#CDCCCC;stroke:#CDCCCC;stroke-miterlimit:10;}
	.st2{fill:#F2F2F2;}
</style>
<g>
	<path class="st0" d="M315.98,418c-41.71,0-75.65-33.94-75.65-75.65s33.94-75.65,75.65-75.65s75.65,33.94,75.65,75.65
		S357.69,418,315.98,418z M315.98,268.7c-40.61,0-73.65,33.04-73.65,73.65S275.37,416,315.98,416s73.65-33.04,73.65-73.65
		S356.59,268.7,315.98,268.7z"/>
</g>
<g>
	<circle class="st1" cx="216.71" cy="199.94" r="5.48"/>
	<circle class="st1" cx="194.56" cy="199.94" r="5.48"/>
	<circle class="st1" cx="172.4" cy="199.94" r="5.48"/>
</g>
<polygon class="st2" points="209.34,7 4.38,327.54 6.75,327.54 9.13,327.54 214.08,7 "/>
</svg>
